<?xml version="1.0" encoding="utf-8"?>
<!-- Generator: Adobe Illustrator 16.0.0, SVG Export Plug-In . SVG Version: 6.00 Build 0)  -->
<!DOCTYPE svg PUBLIC "-//W3C//DTD SVG 1.1//EN" "http://www.w3.org/Graphics/SVG/1.1/DTD/svg11.dtd">
<svg version="1.1" id="Layer_1" xmlns="http://www.w3.org/2000/svg" xmlns:xlink="http://www.w3.org/1999/xlink" x="0px" y="0px"
	 width="20px" height="20px" viewBox="0 0 20 20" enable-background="new 0 0 20 20" xml:space="preserve">
<g>
	<path fill="#FFFFFF" d="M18.5,14.958c-0.19,0-0.382-0.072-0.527-0.217L10,6.848l-7.972,7.894c-0.295,0.291-0.77,0.289-1.061-0.006
		c-0.291-0.294-0.289-0.769,0.005-1.061L9.47,5.261c0.074-0.074,0.16-0.129,0.251-0.166l0,0c0,0,0.001,0,0.002,0l0,0
		c0.001,0,0.001,0,0.002-0.001h0c0,0,0.002,0,0.002-0.001c0.001,0,0.001-0.001,0.002-0.001s0.002,0,0.002,0c0,0,0-0.001,0.002-0.001
		c0.001,0,0.001-0.001,0.002-0.001h0c0-0.001,0.001-0.001,0.002-0.001s0.001,0,0.002,0s0.001-0.001,0.002-0.001s0,0,0,0
		C9.827,5.057,9.913,5.042,10,5.042l0,0c0.087,0,0.173,0.015,0.256,0.045c0,0,0,0,0.002,0v0c0,0,0.001,0,0.002,0h0
		c0,0,0.001,0,0.001,0.001h0c0.001,0,0.001,0.001,0.002,0.001s0.001,0,0.002,0.001c0,0,0,0,0.002,0c0.001,0,0.001,0.001,0.002,0.001
		h0c0,0,0.001,0,0.001,0.001h0c0,0,0.001,0,0.002,0.001l0,0c0.092,0.037,0.179,0.092,0.253,0.167l8.498,8.414
		c0.295,0.292,0.297,0.767,0.006,1.061C18.887,14.884,18.693,14.958,18.5,14.958z"/>
</g>
</svg>
