<?xml version="1.0" encoding="utf-8"?>
<!-- Generator: Adobe Illustrator 16.0.3, SVG Export Plug-In . SVG Version: 6.00 Build 0)  -->
<!DOCTYPE svg PUBLIC "-//W3C//DTD SVG 1.1//EN" "http://www.w3.org/Graphics/SVG/1.1/DTD/svg11.dtd">
<svg version="1.1" id="Layer_1" xmlns="http://www.w3.org/2000/svg" xmlns:xlink="http://www.w3.org/1999/xlink" x="0px" y="0px"
	 width="30px" height="30px" viewBox="0 0 30 30" enable-background="new 0 0 30 30" xml:space="preserve">
<g>
	<path d="M22.5,27h-15c-0.266,0-0.484-0.207-0.5-0.473l-1-18.5C5.993,7.89,6.043,7.756,6.137,7.656C6.231,7.557,6.363,7.5,6.5,7.5
		h1.281l3.103-3.34c0.167-0.18,0.44-0.212,0.644-0.076l2.068,1.379l4.935-2.412c0.247-0.121,0.544-0.02,0.667,0.226L21.309,7.5H23.5
		c0.137,0,0.269,0.057,0.363,0.156c0.094,0.1,0.144,0.233,0.137,0.371l-1,18.5C22.984,26.793,22.766,27,22.5,27z M7.974,26h14.053
		l0.946-17.5h-1.962c-0.007,0-0.013,0-0.021,0h-4.483c-0.005,0-0.01,0-0.015,0h-8.49c-0.002,0-0.003,0-0.004,0H7.027L7.974,26z
		 M16.651,7.5h3.54l-1.667-3.333l-3.966,1.938L16.651,7.5z M9.146,7.5h5.702l-3.522-2.348L9.146,7.5z M19.5,23.5
		c-0.276,0-0.5-0.224-0.5-0.5V11c0-0.276,0.224-0.5,0.5-0.5S20,10.724,20,11v12C20,23.276,19.776,23.5,19.5,23.5z M15,23.5
		c-0.276,0-0.5-0.224-0.5-0.5V11c0-0.276,0.224-0.5,0.5-0.5s0.5,0.224,0.5,0.5v12C15.5,23.276,15.276,23.5,15,23.5z M10.5,23.5
		c-0.276,0-0.5-0.224-0.5-0.5V11c0-0.276,0.224-0.5,0.5-0.5S11,10.724,11,11v12C11,23.276,10.776,23.5,10.5,23.5z"/>
</g>
</svg>
