<?xml version="1.0" encoding="utf-8"?>
<!-- Generator: Adobe Illustrator 16.0.3, SVG Export Plug-In . SVG Version: 6.00 Build 0)  -->
<!DOCTYPE svg PUBLIC "-//W3C//DTD SVG 1.1//EN" "http://www.w3.org/Graphics/SVG/1.1/DTD/svg11.dtd">
<svg version="1.1" id="Layer_1" xmlns="http://www.w3.org/2000/svg" xmlns:xlink="http://www.w3.org/1999/xlink" x="0px" y="0px"
	 width="30px" height="30px" viewBox="0 0 30 30" enable-background="new 0 0 30 30" xml:space="preserve">
<g>
	<g>
		<g>
			<path fill="#494949" d="M7.862,23.317c-0.276,0-0.5-0.224-0.5-0.5v-1.072c-2.02-0.208-3.588-1.662-3.588-3.419
				c0-0.276,0.224-0.5,0.5-0.5s0.5,0.224,0.5,0.5c0,1.213,1.122,2.223,2.588,2.412v-4.936c-2.02-0.209-3.588-1.663-3.588-3.421
				c0-0.004,0-0.009,0-0.013s0-0.009,0-0.013c0-1.758,1.568-3.212,3.588-3.42V7.865c0-0.276,0.224-0.5,0.5-0.5s0.5,0.224,0.5,0.5
				v1.071c2.019,0.208,3.588,1.662,3.588,3.42c0,0.276-0.224,0.5-0.5,0.5s-0.5-0.224-0.5-0.5c0-1.214-1.122-2.224-2.588-2.413v4.937
				c2.019,0.208,3.588,1.662,3.588,3.42c0,0.005,0,0.009,0,0.013c0,0.005,0,0.009,0,0.014c0,1.757-1.569,3.211-3.588,3.419v1.072
				C8.362,23.094,8.139,23.317,7.862,23.317z M8.362,15.886v4.853c1.466-0.189,2.588-1.199,2.588-2.412c0-0.005,0-0.009,0-0.014
				c0-0.004,0-0.008,0-0.013C10.95,17.086,9.828,16.076,8.362,15.886z M4.774,12.369c0,0.004,0,0.009,0,0.013
				c0,1.214,1.122,2.225,2.588,2.414V9.943c-1.466,0.189-2.588,1.199-2.588,2.413C4.774,12.36,4.774,12.365,4.774,12.369z"/>
		</g>
	</g>
	<g>
		<g>
			<path fill="#494949" d="M19.894,10.926c0,0.427-0.346,0.771-0.771,0.771c-0.424,0-0.77-0.344-0.77-0.771
				c0-0.425,0.346-0.77,0.77-0.77C19.548,10.156,19.894,10.501,19.894,10.926"/>
		</g>
	</g>
	<g>
		<g>
			<path fill="#494949" d="M16.046,22.912c-0.063,0-0.127-0.013-0.188-0.037c-0.188-0.076-0.311-0.259-0.312-0.462L15.521,10.56
				c0-0.143,0.061-0.278,0.167-0.373l3.773-3.376c0.092-0.082,0.21-0.128,0.333-0.128h5.932c0.276,0,0.5,0.224,0.5,0.5v5.396
				c0,0.131-0.052,0.257-0.144,0.351l-9.679,9.833C16.308,22.859,16.178,22.912,16.046,22.912z M16.521,10.782l0.022,10.409
				l8.682-8.818v-4.69h-5.24L16.521,10.782z M18.7,16.57c-0.126,0-0.253-0.048-0.351-0.144c-0.196-0.193-0.199-0.51-0.006-0.707
				l4.434-4.503c0.194-0.197,0.51-0.199,0.707-0.006c0.197,0.194,0.199,0.511,0.006,0.707l-4.434,4.503
				C18.959,16.521,18.83,16.57,18.7,16.57z"/>
		</g>
	</g>
</g>
</svg>
