<?xml version="1.0" encoding="utf-8"?>
<!-- Generator: Adobe Illustrator 16.0.3, SVG Export Plug-In . SVG Version: 6.00 Build 0)  -->
<!DOCTYPE svg PUBLIC "-//W3C//DTD SVG 1.1//EN" "http://www.w3.org/Graphics/SVG/1.1/DTD/svg11.dtd">
<svg version="1.1" id="Layer_1" xmlns="http://www.w3.org/2000/svg" xmlns:xlink="http://www.w3.org/1999/xlink" x="0px" y="0px"
	 width="30px" height="30px" viewBox="0 0 30 30" enable-background="new 0 0 30 30" xml:space="preserve">
<g>
	<path fill="#FFFFFF" d="M12.652,20.303c-2.044,0-3.965-0.795-5.411-2.24S5,14.695,5,12.652c0-2.044,0.796-3.966,2.241-5.41
		c1.445-1.446,3.367-2.243,5.411-2.243s3.965,0.797,5.411,2.243c1.446,1.444,2.242,3.366,2.242,5.41s-0.796,3.965-2.242,5.41
		C16.617,19.508,14.696,20.303,12.652,20.303z M12.652,5.999c-1.777,0-3.447,0.693-4.704,1.95C6.692,9.205,6,10.875,6,12.652
		c0,1.776,0.692,3.446,1.948,4.703c1.256,1.256,2.927,1.947,4.704,1.947s3.447-0.691,4.704-1.947
		c1.257-1.257,1.949-2.927,1.949-4.703c0-1.777-0.692-3.447-1.949-4.703C16.099,6.692,14.429,5.999,12.652,5.999z"/>
</g>
<g>
	<path fill="#FFFFFF" d="M24.5,25c-0.128,0-0.256-0.049-0.354-0.146l-6.5-6.5c-0.195-0.195-0.195-0.512,0-0.707s0.512-0.195,0.707,0
		l6.5,6.5c0.195,0.195,0.195,0.512,0,0.707C24.756,24.951,24.628,25,24.5,25z"/>
</g>
</svg>
